<mxfile host="app.diagrams.net" agent="Mozilla/5.0 (X11; Linux x86_64; rv:136.0) Gecko/20100101 Firefox/136.0" version="26.2.1">
  <diagram name="Page-1" id="QPDrajJJBtbpyyoRDySv">
    <mxGraphModel dx="1675" dy="953" grid="1" gridSize="10" guides="1" tooltips="1" connect="1" arrows="1" fold="1" page="1" pageScale="1" pageWidth="827" pageHeight="1169" math="0" shadow="0">
      <root>
        <mxCell id="0" />
        <mxCell id="1" parent="0" />
        <mxCell id="5uKQzVhtVWPJGclcy4p8-8" style="edgeStyle=orthogonalEdgeStyle;rounded=0;orthogonalLoop=1;jettySize=auto;html=1;exitX=0;exitY=1;exitDx=0;exitDy=0;entryX=1;entryY=1;entryDx=0;entryDy=0;" edge="1" parent="1" source="5uKQzVhtVWPJGclcy4p8-1" target="5uKQzVhtVWPJGclcy4p8-2">
          <mxGeometry relative="1" as="geometry" />
        </mxCell>
        <mxCell id="5uKQzVhtVWPJGclcy4p8-13" value="Final Report" style="edgeLabel;html=1;align=center;verticalAlign=middle;resizable=0;points=[];" vertex="1" connectable="0" parent="5uKQzVhtVWPJGclcy4p8-8">
          <mxGeometry x="0.1339" y="-1" relative="1" as="geometry">
            <mxPoint as="offset" />
          </mxGeometry>
        </mxCell>
        <mxCell id="5uKQzVhtVWPJGclcy4p8-9" style="edgeStyle=orthogonalEdgeStyle;rounded=0;orthogonalLoop=1;jettySize=auto;html=1;exitX=1;exitY=0;exitDx=0;exitDy=0;entryX=0;entryY=0;entryDx=0;entryDy=15;entryPerimeter=0;" edge="1" parent="1" source="5uKQzVhtVWPJGclcy4p8-1" target="5uKQzVhtVWPJGclcy4p8-3">
          <mxGeometry relative="1" as="geometry">
            <mxPoint x="-200" y="411.7058823529412" as="targetPoint" />
            <Array as="points">
              <mxPoint x="-341" y="415" />
            </Array>
          </mxGeometry>
        </mxCell>
        <mxCell id="5uKQzVhtVWPJGclcy4p8-14" value="Details" style="edgeLabel;html=1;align=center;verticalAlign=middle;resizable=0;points=[];" vertex="1" connectable="0" parent="5uKQzVhtVWPJGclcy4p8-9">
          <mxGeometry x="-0.0577" relative="1" as="geometry">
            <mxPoint as="offset" />
          </mxGeometry>
        </mxCell>
        <mxCell id="5uKQzVhtVWPJGclcy4p8-1" value="&lt;b&gt;Student Information&lt;br&gt;System&lt;/b&gt;" style="ellipse;whiteSpace=wrap;html=1;" vertex="1" parent="1">
          <mxGeometry x="-460" y="400" width="140" height="80" as="geometry" />
        </mxCell>
        <mxCell id="5uKQzVhtVWPJGclcy4p8-7" style="edgeStyle=orthogonalEdgeStyle;rounded=0;orthogonalLoop=1;jettySize=auto;html=1;exitX=1;exitY=0;exitDx=0;exitDy=0;entryX=0;entryY=0;entryDx=0;entryDy=0;" edge="1" parent="1" source="5uKQzVhtVWPJGclcy4p8-2" target="5uKQzVhtVWPJGclcy4p8-1">
          <mxGeometry relative="1" as="geometry" />
        </mxCell>
        <mxCell id="5uKQzVhtVWPJGclcy4p8-12" value="Student Details" style="edgeLabel;html=1;align=center;verticalAlign=middle;resizable=0;points=[];" vertex="1" connectable="0" parent="5uKQzVhtVWPJGclcy4p8-7">
          <mxGeometry x="-0.1047" y="1" relative="1" as="geometry">
            <mxPoint x="-2" as="offset" />
          </mxGeometry>
        </mxCell>
        <mxCell id="5uKQzVhtVWPJGclcy4p8-2" value="&lt;b&gt;Admin/User&lt;/b&gt;" style="ellipse;whiteSpace=wrap;html=1;" vertex="1" parent="1">
          <mxGeometry x="-730" y="400" width="120" height="80" as="geometry" />
        </mxCell>
        <mxCell id="5uKQzVhtVWPJGclcy4p8-3" value="&lt;b&gt;Database&lt;/b&gt;" style="shape=cylinder3;whiteSpace=wrap;html=1;boundedLbl=1;backgroundOutline=1;size=15;" vertex="1" parent="1">
          <mxGeometry x="-190" y="400" width="70" height="80" as="geometry" />
        </mxCell>
        <mxCell id="5uKQzVhtVWPJGclcy4p8-10" style="edgeStyle=orthogonalEdgeStyle;rounded=0;orthogonalLoop=1;jettySize=auto;html=1;exitX=0.145;exitY=1;exitDx=0;exitDy=-4.35;exitPerimeter=0;entryX=0.771;entryY=0.933;entryDx=0;entryDy=0;entryPerimeter=0;" edge="1" parent="1" source="5uKQzVhtVWPJGclcy4p8-3" target="5uKQzVhtVWPJGclcy4p8-1">
          <mxGeometry relative="1" as="geometry" />
        </mxCell>
        <mxCell id="5uKQzVhtVWPJGclcy4p8-15" value="Report" style="edgeLabel;html=1;align=center;verticalAlign=middle;resizable=0;points=[];" vertex="1" connectable="0" parent="5uKQzVhtVWPJGclcy4p8-10">
          <mxGeometry x="-0.0524" y="4" relative="1" as="geometry">
            <mxPoint y="1" as="offset" />
          </mxGeometry>
        </mxCell>
      </root>
    </mxGraphModel>
  </diagram>
</mxfile>
